<svg width="74" height="104" viewBox="0 0 74 104" fill="none" xmlns="http://www.w3.org/2000/svg">
<rect y="0.600098" width="74" height="74" rx="8" fill="#F2F4F8"/>
<path d="M47.8194 29.9364C47.8194 29.9364 44.873 44.5155 25.718 41.899C25.718 41.899 26.0861 53.1144 31.9799 57.6001C31.9799 57.6001 51.5031 52.7407 47.8194 29.9364Z" fill="#131313"/>
<path d="M40.8211 17.6001C40.8211 22.5682 43.0312 32.1792 34.191 39.2825C34.191 39.2825 45.9786 38.1605 46.8773 27.644C46.8773 27.644 47.0831 26.5726 44.873 22.4605C43.2087 19.3638 40.8211 17.6001 40.8211 17.6001Z" fill="#131313"/>
<g clip-path="url(#clip0_809_607)">
<path d="M6.12239 103.265L0 90.9349H3.43112L7.59216 99.9665L11.9965 90.9349H15.0949L8.96759 103.265H6.12736H6.12239Z" fill="#E2E5EB"/>
<path d="M13.6004 103.265L19.7178 90.9349H22.558L28.6854 103.265H25.5274L21.1429 94.1837L16.7534 103.265H13.5954H13.6004Z" fill="#E2E5EB"/>
<path d="M30.9645 90.9349H38.3977C39.2816 90.9349 40.0413 91.1149 40.6918 91.4747C41.3323 91.8296 41.8289 92.3244 42.1864 92.9542C42.5389 93.5839 42.7127 94.2986 42.7127 95.1033C42.7127 95.953 42.5091 96.7027 42.102 97.3575C41.6849 98.0122 41.1734 98.482 40.5577 98.7669L43.3086 103.265H39.9221L37.5487 99.2567H33.9239V103.265H30.9694V96.6178H38.4027C38.7999 96.6178 39.1277 96.4878 39.3809 96.2229C39.6292 95.958 39.7583 95.5831 39.7583 95.0983C39.7583 94.6135 39.6242 94.2337 39.3511 93.9688C39.073 93.7039 38.7553 93.5739 38.4027 93.5739H30.9694V90.9349H30.9645Z" fill="#E2E5EB"/>
<path d="M48.6961 102.755C47.5739 102.196 46.6702 101.421 45.9949 100.441C45.3246 99.4567 44.9869 98.3471 44.9869 97.1026C44.9869 95.8581 45.3246 94.7435 45.9949 93.7639C46.6653 92.7793 47.569 92.0096 48.6961 91.4498C49.8282 90.88 51.0696 90.6001 52.4351 90.6001C53.8006 90.6001 55.0519 90.88 56.184 91.4498C57.3062 92.0096 58.2099 92.7793 58.8852 93.7639C59.5556 94.7435 59.8932 95.8531 59.8932 97.1026C59.8932 98.3521 59.5556 99.4567 58.8852 100.441C58.2149 101.421 57.3112 102.196 56.184 102.755C55.0519 103.315 53.8105 103.6 52.4351 103.6C51.0597 103.6 49.8282 103.32 48.6961 102.755ZM54.6596 100.321C55.3399 100.031 55.8861 99.6166 56.3082 99.0768C56.7203 98.532 56.9338 97.8723 56.9338 97.1026C56.9338 96.3329 56.7203 95.6681 56.3082 95.1284C55.8861 94.5836 55.3349 94.1637 54.6596 93.8788C53.9744 93.5889 53.2345 93.444 52.4351 93.444C51.6357 93.444 50.9057 93.5889 50.2205 93.8838C49.5353 94.1737 48.9841 94.5886 48.567 95.1334C48.1549 95.6781 47.9414 96.3329 47.9414 97.0976C47.9414 97.8623 48.1549 98.5071 48.567 99.0568C48.9792 99.6066 49.5303 100.021 50.2205 100.316C50.9057 100.606 51.6456 100.751 52.4351 100.751C53.2246 100.751 53.9744 100.606 54.6596 100.316V100.321Z" fill="#E2E5EB"/>
<path d="M65.37 103.265C64.5954 103.045 63.9052 102.765 63.3193 102.406C62.7235 102.051 62.217 101.626 61.7949 101.131L63.652 99.0768C63.9251 99.3817 64.2528 99.6616 64.6401 99.9365C65.0274 100.211 65.4942 100.446 66.0404 100.651C66.5816 100.856 67.2023 100.961 67.8875 100.961C68.538 100.961 69.114 100.861 69.6304 100.666C70.1369 100.476 70.5341 100.256 70.8122 99.9965C71.0902 99.7366 71.2342 99.5167 71.2342 99.3267C71.2342 99.1068 71.1151 98.9419 70.8817 98.8269C70.6483 98.712 70.3107 98.632 69.8638 98.577C69.4169 98.5221 68.9203 98.4771 68.3642 98.4471C67.8279 98.4171 67.2768 98.3771 66.7157 98.3171C66.1496 98.2572 65.5985 98.1572 65.0622 98.0223C64.5358 97.8873 64.0542 97.6824 63.6123 97.4075C63.1704 97.1326 62.8277 96.7677 62.5695 96.3079C62.3064 95.8531 62.1773 95.2733 62.1773 94.5786C62.1773 93.8838 62.4106 93.2341 62.8774 92.6293C63.3441 92.0246 63.9996 91.5347 64.8536 91.1649C65.7127 90.795 66.7256 90.6051 67.8975 90.6051C68.7962 90.6051 69.6006 90.7051 70.3007 90.9C71.0009 91.1049 71.6215 91.3648 72.1429 91.6897C72.6692 92.0096 73.1459 92.4044 73.5829 92.8642L71.701 94.7635C71.3534 94.4436 71.0158 94.1887 70.6831 93.9738C70.3603 93.7639 69.9829 93.589 69.546 93.459C69.109 93.3241 68.5827 93.2641 67.9471 93.2641C67.1477 93.2641 66.4326 93.409 65.812 93.7039C65.1863 93.9988 64.8785 94.2937 64.8785 94.5836C64.8785 94.8435 65.0125 95.0484 65.2757 95.1883C65.5488 95.3333 65.9311 95.4482 66.4227 95.5232C66.9143 95.5982 67.4605 95.6582 68.0663 95.7131C68.7316 95.7731 69.4069 95.8481 70.0872 95.958C70.7724 96.063 71.408 96.2329 71.9939 96.4678C72.5799 96.7028 73.0665 97.0526 73.4439 97.5074C73.8212 97.9623 74 98.572 74 99.3367C74 100.101 73.7567 100.786 73.275 101.441C72.7835 102.096 72.0933 102.615 71.1796 103.02C70.266 103.415 69.1736 103.61 67.9024 103.61C66.9888 103.61 66.1446 103.495 65.37 103.275V103.265Z" fill="#E2E5EB"/>
</g>
<defs>
<clipPath id="clip0_809_607">
<rect width="74" height="13" fill="white" transform="translate(0 90.6001)"/>
</clipPath>
</defs>
</svg>
